<?xml version="1.0" encoding="utf-8"?>
<!-- Generator: Adobe Illustrator 15.0.0, SVG Export Plug-In . SVG Version: 6.00 Build 0)  -->
<!DOCTYPE svg PUBLIC "-//W3C//DTD SVG 1.1//EN" "http://www.w3.org/Graphics/SVG/1.1/DTD/svg11.dtd">
<svg version="1.1" id="Layer_1" xmlns="http://www.w3.org/2000/svg" xmlns:xlink="http://www.w3.org/1999/xlink" x="0px" y="0px"
	 width="414px" height="124px" viewBox="0 0 414 124" enable-background="new 0 0 414 124" xml:space="preserve">
<polygon fill="#7AC943" points="98.201,18.223 105.401,22.379 105.401,30.695 98.201,34.852 91,30.695 91,22.379 "/>
<polygon fill="#7AC943" points="25.625,18.223 32.825,22.379 32.825,30.695 25.625,34.852 18.424,30.695 18.424,22.379 "/>
<polygon fill="#7AC943" points="98.201,88.059 105.401,92.215 105.401,100.531 98.201,104.688 91,100.531 91,92.215 "/>
<polygon fill="#7AC943" points="25.625,88.059 32.825,92.215 32.825,100.531 25.625,104.688 18.424,100.531 18.424,92.215 "/>
<polygon fill="#7AC943" points="80.453,79.398 84.685,81.842 84.685,86.727 80.453,89.168 76.222,86.727 76.222,81.842 "/>
<polygon fill="#7AC943" points="43.277,79.398 47.508,81.842 47.508,86.727 43.277,89.168 39.046,86.727 39.046,81.842 "/>
<polygon fill="#7AC943" points="79.822,32.949 84.054,35.393 84.054,40.277 79.822,42.719 75.592,40.277 75.592,35.393 "/>
<polygon fill="#7AC943" points="42.646,32.949 46.877,35.393 46.877,40.277 42.646,42.719 38.415,40.277 38.415,35.393 "/>
<rect x="66.007" y="28.372" transform="matrix(0.5395 0.842 -0.842 0.5395 58.6459 -49.3865)" fill="#7AC943" width="16.926" height="1.092"/>
<rect x="47.512" y="20.455" transform="matrix(0.8426 0.5385 -0.5385 0.8426 23.1351 -21.3279)" fill="#7AC943" width="1.092" height="16.926"/>
<rect x="40.164" y="93.83" transform="matrix(0.5719 0.8203 -0.8203 0.5719 98.5366 -0.0558)" fill="#7AC943" width="18.316" height="1.095"/>
<rect x="73.821" y="85.231" transform="matrix(0.8243 0.5662 -0.5662 0.8243 66.5812 -25.4976)" fill="#7AC943" width="1.094" height="18.568"/>
<rect x="80.482" y="89.592" transform="matrix(0.7479 0.6638 -0.6638 0.7479 82.1543 -36.0317)" fill="#7AC943" width="16.061" height="1.094"/>
<rect x="87.982" y="24.829" transform="matrix(0.5705 0.8213 -0.8213 0.5705 64.7317 -58.7449)" fill="#7AC943" width="1.094" height="15.372"/>
<rect x="27.173" y="31.85" transform="matrix(0.7526 0.6585 -0.6585 0.7526 30.0966 -15.3165)" fill="#7AC943" width="16.519" height="1.093"/>
<rect x="34.979" y="81.894" transform="matrix(0.6271 0.7789 -0.7789 0.6271 83.2947 5.8612)" fill="#7AC943" width="1.093" height="16.061"/>
<polygon fill="#0682CE" points="62.095,45.006 76.292,53.203 76.292,69.596 62.095,77.793 47.897,69.596 47.897,53.203 "/>
<rect x="61.002" y="17.439" fill="#0682CE" width="2.186" height="89.123"/>
<polygon points="62.095,96.373 74.051,103.275 74.051,117.082 62.095,123.984 50.139,117.082 50.139,103.275 "/>
<polygon fill="#0682CE" points="61.913,0.016 73.869,6.918 73.869,20.725 61.913,27.627 49.957,20.725 49.957,6.918 "/>
<polygon fill="#0682CE" points="107.269,47.594 119.225,54.498 119.225,68.303 107.269,75.207 95.312,68.303 95.312,54.498 "/>
<polygon fill="#F7931E" points="85.778,7.902 89.806,10.227 89.806,14.875 85.778,17.201 81.752,14.875 81.752,10.227 "/>
<polygon fill="#F7931E" points="35.768,7.902 39.794,10.227 39.794,14.875 35.768,17.201 31.74,14.875 31.74,10.227 "/>
<polygon fill="#0682CE" points="17.101,39.207 13.539,42.195 9.17,40.605 8.363,36.027 11.924,33.039 16.294,34.629 "/>
<polygon fill="#F7931E" points="85.778,105.529 89.806,107.855 89.806,112.504 85.778,114.828 81.752,112.504 81.752,107.855 "/>
<polygon fill="#F7931E" points="35.768,105.529 39.794,107.855 39.794,112.504 35.768,114.828 31.74,112.504 31.74,107.855 "/>
<polygon fill="#0682CE" points="12.731,47.594 24.688,54.498 24.688,68.303 12.731,75.207 0.775,68.303 0.775,54.498 "/>
<polygon fill="#0682CE" points="62.095,96.373 74.051,103.275 74.051,117.082 62.095,123.984 50.139,117.082 50.139,103.275 "/>
<rect x="20.929" y="60.906" fill="#0682CE" width="89.122" height="2.188"/>
<rect x="14.145" y="47.366" transform="matrix(0.9104 0.4138 -0.4138 0.9104 23.0491 -10.5933)" fill="#0682CE" width="43.667" height="1.092"/>
<polygon fill="#0682CE" points="16.603,80.854 16.197,85.486 11.983,87.451 8.175,84.785 8.58,80.152 12.794,78.188 "/>
<rect x="35.561" y="51.827" transform="matrix(0.3517 0.9361 -0.9361 0.3517 92.3622 13.9541)" fill="#0682CE" width="1.091" height="43.667"/>
<polygon fill="#0682CE" points="106.261,83.531 109.823,80.541 114.192,82.133 114.999,86.711 111.438,89.699 107.068,88.109 "/>
<rect x="65.549" y="74.28" transform="matrix(0.9104 0.4138 -0.4138 0.9104 38.7913 -29.4505)" fill="#0682CE" width="43.668" height="1.093"/>
<polygon fill="#0682CE" points="106.76,41.883 107.165,37.252 111.379,35.287 115.188,37.953 114.782,42.586 110.568,44.551 "/>
<rect x="86.709" y="27.244" transform="matrix(0.3511 0.9363 -0.9363 0.3511 102.5706 -49.8552)" fill="#0682CE" width="1.093" height="43.667"/>
<g>
	<path fill="#4D4D4D" d="M187.568,81.828c-5.795,5.795-12.688,8.311-20.127,8.311c-15.418,0-28.217-9.951-28.217-28
		c0-18.045,12.578-28,28.217-28c7.332,0,13.893,2.518,19.582,8.096l-5.689,5.904c-3.826-3.717-8.859-5.467-13.672-5.467
		c-10.721,0-19.359,7.328-19.359,19.467c0,12.578,8.75,19.471,19.25,19.471c5.143,0,10.281-1.75,14.109-5.688l6.018,6.016
		L187.568,81.828z"/>
	<path fill="#4D4D4D" d="M202.557,44.969c3.826-7.328,12.576-10.828,20.232-10.828c15.422,0,27.344,9.844,27.344,28
		c0,17.828-11.922,28-27.449,28c-7.984,0-15.861-3.5-20.127-10.828l-0.436,9.844h-8.533V12.592h8.969V44.969z M202.994,62.031
		c0,11.811,8.422,19.688,19.139,19.688c10.5,0,19.033-7.109,19.033-19.578c0-12.688-8.533-19.578-19.033-19.578
		C211.527,42.562,202.994,50.438,202.994,62.031"/>
	<path fill="#4D4D4D" d="M299.795,89.156l-0.438-8.641c-4.812,6.562-11.266,9.406-18.812,9.514
		c-13.779,0-23.514-9.295-23.514-25.045V35.123H266v29.75c0,10.393,6.125,16.844,16.404,16.844
		c9.844-0.107,16.625-7.873,16.625-17.607V35.123h8.969v54.033h-8.312H299.795z"/>
	<path fill="#4D4D4D" d="M329.441,18.719c0,7.766-11.812,7.766-11.812-0.109C317.629,10.842,329.441,10.842,329.441,18.719
		 M318.941,89.154h8.967v-54.25h-8.967V89.154z"/>
	<rect x="339.504" y="12.592" fill="#4D4D4D" width="8.969" height="76.562"/>
	<path fill="#4D4D4D" d="M413.225,12.484v76.562h-8.422l-0.438-9.844c-4.375,7.438-12.25,10.938-20.234,10.938
		c-15.422,0-27.344-10.172-27.344-28c0-18.156,11.922-28,27.234-28c7.656,0,16.406,3.5,20.234,10.828V12.592h8.859L413.225,12.484z
		 M384.787,42.453c-10.5,0-19.031,6.889-19.031,19.578c0,12.467,8.531,19.578,19.031,19.578c10.719,0,19.141-7.875,19.141-19.689
		c0-11.592-8.531-19.467-19.25-19.467H384.787z"/>
</g>
</svg>
